<?xml version="1.0" encoding="UTF-8" standalone="no"?>
<!-- Created with Inkscape (http://www.inkscape.org/) -->

<svg
   version="1.1"
   id="svg1100"
   width="150"
   height="150"
   viewBox="0 0 150 150"
   sodipodi:docname="bishop.svg"
   inkscape:version="1.2 (dc2aedaf03, 2022-05-15)"
   inkscape:export-filename="bishop.png"
   inkscape:export-xdpi="96"
   inkscape:export-ydpi="96"
   xml:space="preserve"
   xmlns:inkscape="http://www.inkscape.org/namespaces/inkscape"
   xmlns:sodipodi="http://sodipodi.sourceforge.net/DTD/sodipodi-0.dtd"
   xmlns="http://www.w3.org/2000/svg"
   xmlns:svg="http://www.w3.org/2000/svg"><defs
     id="defs1104"><inkscape:path-effect
       effect="offset"
       id="path-effect1779"
       is_visible="true"
       lpeversion="1.2"
       linejoin_type="round"
       unit="px"
       offset="-3"
       miter_limit="4"
       attempt_force_join="false"
       update_on_knot_move="true" /><inkscape:path-effect
       effect="offset"
       id="path-effect294"
       is_visible="true"
       lpeversion="1.2"
       linejoin_type="miter"
       unit="px"
       offset="-0.15"
       miter_limit="4"
       attempt_force_join="false"
       update_on_knot_move="true" /><inkscape:path-effect
       effect="offset"
       id="path-effect4581"
       is_visible="true"
       lpeversion="1.2"
       linejoin_type="miter"
       unit="mm"
       offset="-0.1"
       miter_limit="4"
       attempt_force_join="false"
       update_on_knot_move="true" /><inkscape:path-effect
       effect="offset"
       id="path-effect1751"
       is_visible="true"
       lpeversion="1.2"
       linejoin_type="miter"
       unit="mm"
       offset="-0.4"
       miter_limit="4"
       attempt_force_join="false"
       update_on_knot_move="true" /><inkscape:path-effect
       effect="offset"
       id="path-effect1735"
       is_visible="true"
       lpeversion="1.2"
       linejoin_type="miter"
       unit="mm"
       offset="-0.4"
       miter_limit="4"
       attempt_force_join="false"
       update_on_knot_move="true" /><inkscape:path-effect
       effect="offset"
       id="path-effect1691"
       is_visible="true"
       lpeversion="1.2"
       linejoin_type="miter"
       unit="mm"
       offset="-0.4"
       miter_limit="4"
       attempt_force_join="false"
       update_on_knot_move="true" /></defs><sodipodi:namedview
     id="namedview1102"
     pagecolor="#505050"
     bordercolor="#ffffff"
     borderopacity="1"
     inkscape:showpageshadow="0"
     inkscape:pageopacity="0"
     inkscape:pagecheckerboard="1"
     inkscape:deskcolor="#505050"
     showgrid="true"
     inkscape:zoom="5.7511352"
     inkscape:cx="28.516109"
     inkscape:cy="45.034587"
     inkscape:window-width="2400"
     inkscape:window-height="1494"
     inkscape:window-x="-11"
     inkscape:window-y="-11"
     inkscape:window-maximized="1"
     inkscape:current-layer="g1106"><inkscape:grid
       type="xygrid"
       id="grid1753"
       spacingx="0.5"
       spacingy="0.5"
       enabled="true" /><inkscape:grid
       type="xygrid"
       id="grid3265"
       originx="75"
       originy="75"
       spacingx="10"
       spacingy="10"
       enabled="false" /></sodipodi:namedview><g
     inkscape:groupmode="layer"
     inkscape:label="Image"
     id="g1106"><path
       style="fill:#000000;stroke:none;stroke-opacity:1;stroke-dasharray:none;stroke-width:3;stroke-linejoin:round"
       d="M 47.5,90 C 49.909326,75.544044 75,40 75,40 c 5,5 12.5,15 15,20 l -10,15 2.5,5 10,-15 c 17.5,32.5 10,70 -16.946344,69.96348 C 47.5,135 45,105 47.5,90 Z M 70,60 C 55,82.5 50,87.5 55,110 55,87.5 60,77.5 70,60 Z m 5,-25 c -5,0 -10,-5 -10,-10 0,-5 5,-10 10,-10 5,0 10,5 10,10 0,5 -5,10 -10,10 z"
       id="path4569"
       sodipodi:nodetypes="sccccccsccczzzzz" /><path
       style="fill:#333333;stroke:none;stroke-opacity:1;stroke-dasharray:none;stroke-width:3;stroke-linejoin:round"
       d="m 75,18 c 3.375,0 7,3.625 7,7 0,3.375 -3.625,7 -7,7 -3.375,0 -7,-3.625 -7,-7 0,-3.375 3.625,-7 7,-7 z m 0.287109,26.978516 c 4.207429,4.730378 8.787596,10.835887 11.126953,14.992187 l -8.910156,13.365235 c -0.597338,0.895721 -0.668893,2.042848 -0.1875,3.005859 l 2.5,5 c 1.030156,2.060518 3.902067,2.2392 5.179688,0.322265 l 7.101562,-10.652343 c 13.757364,29.880431 6.112054,60.981871 -16.548828,60.951171 -25.459352,0.0331 -27.395861,-27.63264 -25.089844,-41.468749 0.03512,-0.210742 0.163762,-0.53276 0.210938,-0.757813 -0.974195,5.678229 -0.563099,12.069572 1.402344,20.914062 C 52.853334,114.14435 57.995107,113.5802 58,110 58,88.166667 62.651266,78.908136 72.605469,61.488281 c 1.930066,-3.359102 -2.960788,-6.381246 -5.101563,-3.152343 -3.691051,5.536576 -6.824149,10.061864 -9.376953,14.11914 0.200725,-0.367052 0.381243,-0.723094 0.585938,-1.091797 1.599871,-2.881731 3.30737,-5.795164 5.021484,-8.61914 1.370889,-2.258518 2.74241,-4.455174 4.060547,-6.525391 2.54838,-4.002393 4.257066,-6.55499 7.492187,-11.240234 z"
       id="path1777"
       sodipodi:nodetypes="sccccccsccczzzzz"
       inkscape:path-effect="#path-effect1779"
       inkscape:original-d="M 47.5,90 C 49.909326,75.544044 75,40 75,40 c 5,5 12.5,15 15,20 l -10,15 2.5,5 10,-15 c 17.5,32.5 10,70 -16.946344,69.96348 C 47.5,135 45,105 47.5,90 Z M 70,60 C 55,82.5 50,87.5 55,110 55,87.5 60,77.5 70,60 Z m 5,-25 c -5,0 -10,-5 -10,-10 0,-5 5,-10 10,-10 5,0 10,5 10,10 0,5 -5,10 -10,10 z" /></g></svg>
