<?xml version="1.0" encoding="UTF-8" standalone="no"?>
<!-- Created with Inkscape (http://www.inkscape.org/) -->

<svg
   version="1.1"
   id="svg1100"
   width="150"
   height="150"
   viewBox="0 0 150 150"
   sodipodi:docname="pawn.svg"
   inkscape:version="1.2 (dc2aedaf03, 2022-05-15)"
   inkscape:export-filename="pawn.png"
   inkscape:export-xdpi="96"
   inkscape:export-ydpi="96"
   xml:space="preserve"
   xmlns:inkscape="http://www.inkscape.org/namespaces/inkscape"
   xmlns:sodipodi="http://sodipodi.sourceforge.net/DTD/sodipodi-0.dtd"
   xmlns="http://www.w3.org/2000/svg"
   xmlns:svg="http://www.w3.org/2000/svg"><defs
     id="defs1104"><inkscape:path-effect
       effect="offset"
       id="path-effect2807"
       is_visible="true"
       lpeversion="1.2"
       linejoin_type="miter"
       unit="px"
       offset="-1.5"
       miter_limit="4"
       attempt_force_join="false"
       update_on_knot_move="true" /><inkscape:path-effect
       effect="offset"
       id="path-effect429"
       is_visible="true"
       lpeversion="1.2"
       linejoin_type="round"
       unit="px"
       offset="-3"
       miter_limit="4"
       attempt_force_join="false"
       update_on_knot_move="true" /><inkscape:path-effect
       effect="offset"
       id="path-effect294"
       is_visible="true"
       lpeversion="1.2"
       linejoin_type="miter"
       unit="mm"
       offset="-0.3"
       miter_limit="4"
       attempt_force_join="false"
       update_on_knot_move="true" /><inkscape:path-effect
       effect="offset"
       id="path-effect4581"
       is_visible="true"
       lpeversion="1.2"
       linejoin_type="miter"
       unit="mm"
       offset="-0.1"
       miter_limit="4"
       attempt_force_join="false"
       update_on_knot_move="true" /><inkscape:path-effect
       effect="offset"
       id="path-effect1751"
       is_visible="true"
       lpeversion="1.2"
       linejoin_type="miter"
       unit="mm"
       offset="-0.4"
       miter_limit="4"
       attempt_force_join="false"
       update_on_knot_move="true" /><inkscape:path-effect
       effect="offset"
       id="path-effect1735"
       is_visible="true"
       lpeversion="1.2"
       linejoin_type="miter"
       unit="mm"
       offset="-0.4"
       miter_limit="4"
       attempt_force_join="false"
       update_on_knot_move="true" /><inkscape:path-effect
       effect="offset"
       id="path-effect1691"
       is_visible="true"
       lpeversion="1.2"
       linejoin_type="miter"
       unit="mm"
       offset="-0.4"
       miter_limit="4"
       attempt_force_join="false"
       update_on_knot_move="true" /></defs><sodipodi:namedview
     id="namedview1102"
     pagecolor="#505050"
     bordercolor="#ffffff"
     borderopacity="1"
     inkscape:showpageshadow="0"
     inkscape:pageopacity="0"
     inkscape:pagecheckerboard="1"
     inkscape:deskcolor="#505050"
     showgrid="true"
     inkscape:zoom="4.0666667"
     inkscape:cx="56.065573"
     inkscape:cy="71.680327"
     inkscape:window-width="1196"
     inkscape:window-height="1481"
     inkscape:window-x="1191"
     inkscape:window-y="0"
     inkscape:window-maximized="0"
     inkscape:current-layer="g1106"><inkscape:grid
       type="xygrid"
       id="grid1753"
       spacingx="0.5"
       spacingy="0.5"
       enabled="true" /><inkscape:grid
       type="xygrid"
       id="grid3265"
       originx="75"
       originy="75"
       spacingx="10"
       spacingy="10"
       enabled="false" /></sodipodi:namedview><g
     inkscape:groupmode="layer"
     inkscape:label="Image"
     id="g1106"><path
       style="fill:#000000;stroke-width:3;stroke-dasharray:none;stroke:none;stroke-opacity:1;stroke-linejoin:round;stroke-linecap:round"
       d="M 45,135 C 57.5,117.5 60,97 61.5,75 h 29 c 2.005176,22 4.5,42.5 17,60 z M 52.5,68.5 C 52.5,67.25 52.785985,65 55,65 h 40 c 2.5,0 2.5,1.652933 2.5,3.5 0,2.5 0,4 -2.5,4 H 55 c -2.5,0 -2.5,-2.75 -2.5,-4 z m 22.5,-6 c -12.5,0 -22.5,-10 -22.5,-22.5 0,-12.5 10,-22 22.5,-22 12.5,0 22.5,9.5 22.5,22 0,12.5 -10,22.5 -22.5,22.5 z M 59.08102,48.651388 c -2.766543,-5.169333 0.335861,-15.919646 6.180336,-21.415825 2.542878,-2.391338 2.724128,-2.773275 0.843681,-1.777836 -5.637516,2.984291 -9.08779,9.516378 -9.09946,17.227173 -0.0059,3.925772 1.681649,6.961207 2.603422,6.039435 0.304173,-0.304173 0.06658,1.038001 -0.527979,-0.07295 z"
       id="path2803"
       sodipodi:nodetypes="ccccczssssszzzzzzssscsss" /><path
       style="fill:#333333;stroke-width:3;stroke-dasharray:none;stroke:none;stroke-opacity:1;stroke-linejoin:round;stroke-linecap:round"
       d="M 59.366244,51.581472 C 62.913243,56.368754 68.560398,59.5 75,59.5 85.8,59.5 94.5,50.8 94.5,40 94.5,29.2 85.885,21 75,21 c -1.763969,0 -3.434997,0.284545 -5.052734,0.691406 1.103227,0.371224 1.569563,1.586668 0.105468,4.671875 -0.355556,0.749236 -1.456596,1.855126 -2.736328,3.058594 -5.141356,4.834961 -7.521616,13.916239 -5.653844,17.693847 -0.04693,-0.07618 -0.0823,-0.133088 -0.108158,-0.174165 0.02481,0.04386 0.05534,0.09696 0.08367,0.145943 -0.01967,-0.04066 -0.03885,-0.08192 -0.05756,-0.123767 0.02898,0.04629 0.06727,0.108123 0.116748,0.188611 0.02408,0.04577 0.04685,0.09178 0.06832,0.137987 1.060981,1.926757 -0.327159,4.12022 -2.399346,4.291141 z M 55.529297,68 h 38.96875 c 0.0021,0.156335 0.002,0.317433 0.002,0.5 0,0.4057 -0.003,0.7076 -0.01172,1 H 55.587891 C 55.545393,69.210084 55.5,68.937769 55.5,68.5 c 0,-0.164204 0.0077,-0.324658 0.02734,-0.490234 4.18e-4,-0.0035 0.0015,-0.0063 0.002,-0.0098 z m 8.710937,10 h 23.566407 c 1.808342,19.190403 4.394021,37.67343 14.251949,54 H 50.441406 C 60.28675,115.68756 62.834139,97.202226 64.240234,78 Z"
       id="path319"
       sodipodi:nodetypes="ccccczssssszzzzzzssscsss"
       inkscape:path-effect="#path-effect429"
       inkscape:original-d="M 45,135 C 57.5,117.5 60,97 61.5,75 h 29 c 2.005176,22 4.5,42.5 17,60 z M 52.5,68.5 C 52.5,67.25 52.785985,65 55,65 h 40 c 2.5,0 2.5,1.652933 2.5,3.5 0,2.5 0,4 -2.5,4 H 55 c -2.5,0 -2.5,-2.75 -2.5,-4 z m 22.5,-6 c -12.5,0 -22.5,-10 -22.5,-22.5 0,-12.5 10,-22 22.5,-22 12.5,0 22.5,9.5 22.5,22 0,12.5 -10,22.5 -22.5,22.5 z M 59.08102,48.651388 c -2.766543,-5.169333 0.335861,-15.919646 6.180336,-21.415825 2.542878,-2.391338 2.724128,-2.773275 0.843681,-1.777836 -5.637516,2.984291 -9.08779,9.516378 -9.09946,17.227173 -0.0059,3.925772 1.681649,6.961207 2.603422,6.039435 0.304173,-0.304173 0.06658,1.038001 -0.527979,-0.07295 z" /></g></svg>
