<?xml version="1.0" encoding="UTF-8" standalone="no"?>
<!-- Created with Inkscape (http://www.inkscape.org/) -->

<svg
   version="1.1"
   id="svg1100"
   width="150"
   height="150"
   viewBox="0 0 150 150"
   sodipodi:docname="knight.svg"
   inkscape:version="1.2 (dc2aedaf03, 2022-05-15)"
   inkscape:export-filename="knight.png"
   inkscape:export-xdpi="96"
   inkscape:export-ydpi="96"
   xml:space="preserve"
   xmlns:inkscape="http://www.inkscape.org/namespaces/inkscape"
   xmlns:sodipodi="http://sodipodi.sourceforge.net/DTD/sodipodi-0.dtd"
   xmlns="http://www.w3.org/2000/svg"
   xmlns:svg="http://www.w3.org/2000/svg"><defs
     id="defs1104"><inkscape:path-effect
       effect="offset"
       id="path-effect2030"
       is_visible="true"
       lpeversion="1.2"
       linejoin_type="miter"
       unit="px"
       offset="-3"
       miter_limit="4"
       attempt_force_join="false"
       update_on_knot_move="true" /><inkscape:path-effect
       effect="offset"
       id="path-effect4581"
       is_visible="true"
       lpeversion="1.2"
       linejoin_type="miter"
       unit="mm"
       offset="-0.1"
       miter_limit="4"
       attempt_force_join="false"
       update_on_knot_move="true" /><inkscape:path-effect
       effect="offset"
       id="path-effect1751"
       is_visible="true"
       lpeversion="1.2"
       linejoin_type="miter"
       unit="mm"
       offset="-0.4"
       miter_limit="4"
       attempt_force_join="false"
       update_on_knot_move="true" /><inkscape:path-effect
       effect="offset"
       id="path-effect1735"
       is_visible="true"
       lpeversion="1.2"
       linejoin_type="miter"
       unit="mm"
       offset="-0.4"
       miter_limit="4"
       attempt_force_join="false"
       update_on_knot_move="true" /><inkscape:path-effect
       effect="offset"
       id="path-effect1691"
       is_visible="true"
       lpeversion="1.2"
       linejoin_type="miter"
       unit="mm"
       offset="-0.4"
       miter_limit="4"
       attempt_force_join="false"
       update_on_knot_move="true" /><inkscape:path-effect
       effect="offset"
       id="path-effect294"
       is_visible="true"
       lpeversion="1.2"
       linejoin_type="miter"
       unit="px"
       offset="-3"
       miter_limit="4"
       attempt_force_join="false"
       update_on_knot_move="true" /></defs><sodipodi:namedview
     id="namedview1102"
     pagecolor="#505050"
     bordercolor="#ffffff"
     borderopacity="1"
     inkscape:showpageshadow="0"
     inkscape:pageopacity="0"
     inkscape:pagecheckerboard="1"
     inkscape:deskcolor="#505050"
     showgrid="true"
     inkscape:zoom="8.1333335"
     inkscape:cx="85.450818"
     inkscape:cy="80.286884"
     inkscape:window-width="2400"
     inkscape:window-height="1494"
     inkscape:window-x="-11"
     inkscape:window-y="-11"
     inkscape:window-maximized="1"
     inkscape:current-layer="g1106"><inkscape:grid
       type="xygrid"
       id="grid1753"
       spacingx="0.5"
       spacingy="0.5"
       enabled="true" /><inkscape:grid
       type="xygrid"
       id="grid3265"
       originx="75"
       originy="75"
       spacingx="10"
       spacingy="10"
       enabled="false" /></sodipodi:namedview><g
     inkscape:groupmode="layer"
     inkscape:label="Image"
     id="g1106"><path
       style="fill:#1a1a1a;stroke:none;stroke-width:3;stroke-linecap:round;stroke-linejoin:round;stroke-dasharray:none;stroke-opacity:1"
       d="M 60,135 C 87,111.5 91.747926,99.827674 93.027464,97 86.481724,104.95782 62.337108,133.10184 53.5,133.5 47,128 40.825245,117.31103 38.171728,111.63773 34.206598,103.05887 34.181392,101.48102 37.988277,100.15393 47.758605,96.747977 64.405462,80.785537 70.521651,68.958132 71.35741,67.341952 73.71944,65.15263 75.770607,64.092973 77.821773,63.033317 81.5,58.5 81.5,58.5 c -4.589859,2.661862 -11,6 -16,6.486776 C 61.404724,64.982576 46.122044,73.157331 45,74.5 c -2.279237,2.727399 -5,5.5 -5,4 V 75 c -1,-0.5 -0.932315,-1.30047 0,-1.5 0,0 -0.05144,-4.542841 -1.870322,-3.569401 C 36.304423,70.972636 34.945194,72.968827 32.916232,73 30.641047,73 29,69.472719 29,64.582417 29,61.743571 29.844936,60.631214 35.192632,56.429825 42.653503,50.568233 55,38.094305 55,36.418022 55,34.699755 57.550194,33.950194 58.878145,35.278145 60.310659,36.710659 60.27773,36.354495 58.528836,31.5 56.851053,26.842887 56.494006,15 58.031385,15 61.5,20 66.629309,25.795236 72.717881,28.628828 74.487716,29.382973 76.899954,30 78.078409,30 c 27.647961,10.960319 41.404671,32.675425 41.402131,56 -0.0267,15.80111 0.36264,32.65682 -15.98054,49 z"
       id="path5823"
       sodipodi:nodetypes="ccccsssccssccccssssscccccc" /><path
       style="fill:#e6e6e6;stroke:none;stroke-width:3;stroke-linecap:round;stroke-linejoin:round;stroke-dasharray:none;stroke-opacity:1"
       d="m 65.381098,61.992021 c 0.01493,-0.0017 0.02987,-0.0033 0.04483,-0.0051 -4.832886,0.08204 -20.441707,8.105502 -22.597802,10.495462 -0.519721,-5.90257 -4.144531,-5.689453 -4.144531,-5.689453 -0.770243,-0.01527 -1.438902,0.207575 -1.970703,0.492187 l -0.03516,0.01953 -0.03711,0.01953 c -2.207798,1.260429 -2.915459,2.31319 -3.544922,2.52539 -0.0088,-0.01296 -0.01627,-0.02306 -0.02539,-0.03711 C 32.491242,68.920202 32,67.214238 32,64.582031 32,63.232634 31.902718,62.830542 37.046875,58.789062 43.92439,53.38578 54.657149,42.856221 57.1875,38.822266 c 0.09408,-0.149988 0.150769,-0.547766 0.271484,-0.804688 7.818688,7.376481 6.107098,-1.388204 3.892578,-7.535156 -0.642428,-1.783223 -1.04091,-4.946996 -1.197265,-8.064453 3.163141,3.526402 6.955082,6.910082 11.298828,8.93164 l 0.04492,0.01953 0.04492,0.01953 c 1.648564,0.70247 3.847958,1.269656 5.552734,1.458984 C 103.59161,43.402504 116.48286,64.037899 116.48047,85.994141 116.45417,101.56034 116.68615,116.87455 102.14844,132 H 67.763672 C 89.804906,111.73063 94.699777,100.57882 95.759766,98.236328 L 90.710938,95.09375 c -6.273056,7.62631 -28.338958,32.82962 -36.328126,35.02148 -5.725346,-5.39534 -11.063771,-14.5502 -13.49414,-19.74609 0,0 0,-0.002 0,-0.002 -3.724238,-8.05923 -2.903416,-7.03529 -1.91211,-7.38086 10.645765,-3.711139 27.83563,-20.323731 34.208985,-32.648439 0.559736,-1.082411 2.242885,-2.68955 3.962891,-3.578125 0,0 2.023458,-0.625702 6.68164,-6.369141 L 79.994141,55.904297 C 75.457852,58.535091 69.673884,61.565319 65.208984,62 Z"
       id="path2026"
       sodipodi:nodetypes="ccccsssccssccccssssscccccc"
       inkscape:path-effect="#path-effect2030"
       inkscape:original-d="M 60,135 C 87,111.5 91.747926,99.827674 93.027464,97 86.481724,104.95782 62.337108,133.10184 53.5,133.5 47,128 40.825245,117.31103 38.171728,111.63773 34.206598,103.05887 34.181392,101.48102 37.988277,100.15393 47.758605,96.747977 64.405462,80.785537 70.521651,68.958132 71.35741,67.341952 73.71944,65.15263 75.770607,64.092973 77.821773,63.033317 81.5,58.5 81.5,58.5 c -4.589859,2.661862 -11,6 -16,6.486776 C 61.404724,64.982576 46.122044,73.157331 45,74.5 c -2.279237,2.727399 -5,5.5 -5,4 V 75 c -1,-0.5 -0.932315,-1.30047 0,-1.5 0,0 -0.05144,-4.542841 -1.870322,-3.569401 C 36.304423,70.972636 34.945194,72.968827 32.916232,73 30.641047,73 29,69.472719 29,64.582417 29,61.743571 29.844936,60.631214 35.192632,56.429825 42.653503,50.568233 55,38.094305 55,36.418022 55,34.699755 57.550194,33.950194 58.878145,35.278145 60.310659,36.710659 60.27773,36.354495 58.528836,31.5 56.851053,26.842887 56.494006,15 58.031385,15 61.5,20 66.629309,25.795236 72.717881,28.628828 74.487716,29.382973 76.899954,30 78.078409,30 c 27.647961,10.960319 41.404671,32.675425 41.402131,56 -0.0267,15.80111 0.36264,32.65682 -15.98054,49 z" /></g></svg>
