<?xml version="1.0" encoding="UTF-8" standalone="no"?>
<!-- Created with Inkscape (http://www.inkscape.org/) -->

<svg
   version="1.1"
   id="svg1100"
   width="150"
   height="150"
   viewBox="0 0 150 150"
   sodipodi:docname="queen.svg"
   inkscape:version="1.2 (dc2aedaf03, 2022-05-15)"
   inkscape:export-filename="queen.png"
   inkscape:export-xdpi="96"
   inkscape:export-ydpi="96"
   xml:space="preserve"
   xmlns:inkscape="http://www.inkscape.org/namespaces/inkscape"
   xmlns:sodipodi="http://sodipodi.sourceforge.net/DTD/sodipodi-0.dtd"
   xmlns="http://www.w3.org/2000/svg"
   xmlns:svg="http://www.w3.org/2000/svg"><defs
     id="defs1104"><inkscape:path-effect
       effect="offset"
       id="path-effect2292"
       is_visible="true"
       lpeversion="1.2"
       linejoin_type="miter"
       unit="px"
       offset="-1.5"
       miter_limit="4"
       attempt_force_join="false"
       update_on_knot_move="true" /><inkscape:path-effect
       effect="offset"
       id="path-effect429"
       is_visible="true"
       lpeversion="1.2"
       linejoin_type="round"
       unit="px"
       offset="-3"
       miter_limit="4"
       attempt_force_join="false"
       update_on_knot_move="true" /><inkscape:path-effect
       effect="offset"
       id="path-effect294"
       is_visible="true"
       lpeversion="1.2"
       linejoin_type="miter"
       unit="mm"
       offset="-0.3"
       miter_limit="4"
       attempt_force_join="false"
       update_on_knot_move="true" /><inkscape:path-effect
       effect="offset"
       id="path-effect4581"
       is_visible="true"
       lpeversion="1.2"
       linejoin_type="miter"
       unit="mm"
       offset="-0.1"
       miter_limit="4"
       attempt_force_join="false"
       update_on_knot_move="true" /><inkscape:path-effect
       effect="offset"
       id="path-effect1751"
       is_visible="true"
       lpeversion="1.2"
       linejoin_type="miter"
       unit="mm"
       offset="-0.4"
       miter_limit="4"
       attempt_force_join="false"
       update_on_knot_move="true" /><inkscape:path-effect
       effect="offset"
       id="path-effect1735"
       is_visible="true"
       lpeversion="1.2"
       linejoin_type="miter"
       unit="mm"
       offset="-0.4"
       miter_limit="4"
       attempt_force_join="false"
       update_on_knot_move="true" /><inkscape:path-effect
       effect="offset"
       id="path-effect1691"
       is_visible="true"
       lpeversion="1.2"
       linejoin_type="miter"
       unit="mm"
       offset="-0.4"
       miter_limit="4"
       attempt_force_join="false"
       update_on_knot_move="true" /></defs><sodipodi:namedview
     id="namedview1102"
     pagecolor="#505050"
     bordercolor="#ffffff"
     borderopacity="1"
     inkscape:showpageshadow="0"
     inkscape:pageopacity="0"
     inkscape:pagecheckerboard="1"
     inkscape:deskcolor="#505050"
     showgrid="true"
     inkscape:zoom="5.7511352"
     inkscape:cx="54.945674"
     inkscape:cy="52.511372"
     inkscape:window-width="2400"
     inkscape:window-height="1494"
     inkscape:window-x="-11"
     inkscape:window-y="-11"
     inkscape:window-maximized="1"
     inkscape:current-layer="g1106"><inkscape:grid
       type="xygrid"
       id="grid1753"
       spacingx="0.5"
       spacingy="0.5"
       enabled="true" /><inkscape:grid
       type="xygrid"
       id="grid3265"
       originx="75"
       originy="75"
       spacingx="10"
       spacingy="10"
       enabled="false" /></sodipodi:namedview><g
     inkscape:groupmode="layer"
     inkscape:label="Image"
     id="g1106"><path
       style="fill:#1a1a1a;stroke:none;stroke-opacity:1;stroke-width:3;stroke-dasharray:none;stroke-linejoin:round;stroke-linecap:round"
       d="M 47.5,135 C 47.5,135 41,103.5 35.967611,90 31.387689,77.914117 31.279631,76.711802 34.542656,74.145106 36.04254,72.965298 38.5,72.5 40,72 41.37384,71.542053 44.102692,70.948247 46.017865,69.66277 55.411609,63.357632 62.352434,63.881947 70,70 c 5,4 5.030446,4.037763 10,0 8,-6.5 8.679005,-5.476053 13.496885,-4.694218 3.155683,0.512096 10.046885,3.377932 13.503115,5.615525 0.825,0.534112 3.1151,1.227127 5.08912,1.540034 2.46873,0.391326 3.87576,1.10452 4.94177,3.096371 1.06601,1.991851 1.19385,3.076961 -1.44673,10.234868 -2.64058,7.157907 -4.90635,14.66617 -7.2365,22.87539 C 106.01751,116.87719 102.5,135 102.5,135 Z M 60,62.5 C 55.012355,62.63958 53.372039,63.796478 50,65 51.661353,57.02576 57.923409,51.217308 62.400038,47.87802 64.54506,46.295109 65.61792,45 65.61792,45 56.688557,50.375821 49.659091,54.288267 46.953849,63.290738 45.545891,67.461315 43.33064,69.293629 39.295203,69.628537 38.366748,68.700081 41.562934,57.887662 44.062851,53.5 c 3.857231,-6.769915 7.098989,-9.533198 15.923114,-13.572905 6.504423,-2.977743 8.471186,-3.416826 15,-3.348777 13.437919,0.140061 27.404705,8.075748 32.001925,18.182946 1.18547,2.606305 2.57316,5.52013 3.08375,6.475167 C 111.09336,63.147478 111.35346,70 110.40429,70 100.46067,66.487726 95.053035,62.162757 90,62.5 84.946965,62.837243 77.095489,71 75,71 72,71 64.987645,62.36042 60,62.5 Z M 65,25 c 0,-5 5,-10 10,-10 5,0 10,5 10,10 0,5 -5,10 -10,10 -5,0 -10,-5 -10,-10 z m 8,-5 C 72.637036,19.342625 71.905191,19.24117 71.274265,19.825735 70.643339,20.4103 70.558511,21.285655 71,22 c 0.441489,0.714345 1.117402,0.782598 1.725735,0.174265 C 73.334068,21.565932 73.362964,20.657375 73,20 Z"
       id="path2288"
       sodipodi:nodetypes="ccsssssssszzzcczcccccsssssczszzzzzzzzzzz" /><path
       style="fill:#e6e6e6;stroke:none;stroke-opacity:1;stroke-width:3;stroke-dasharray:none;stroke-linejoin:round;stroke-linecap:round"
       d="M 75.1875,18.046875 C 78.507425,18.178152 82,21.687899 82,25 c 0,3.375 -3.625,7 -7,7 -3.375,0 -7,-3.625 -7,-7 0,-0.526322 0.225098,-1.046527 0.386719,-1.570312 0.0274,0.04762 0.03145,0.101365 0.06055,0.148437 1.455716,2.355401 4.493887,2.6233 6.40039,0.716797 1.623288,-1.623285 1.734317,-4.014475 0.779297,-5.744141 -0.11005,-0.199315 -0.303683,-0.325292 -0.439453,-0.503906 z m -0.232422,21.53125 c 12.568422,0.130998 25.232812,7.477881 29.302732,16.425781 1.19374,2.62449 2.59226,5.569641 3.16797,6.646485 0.14135,0.264384 0.24043,1.796645 0.36133,3.048828 -7.57186,-3.150951 -12.825189,-6.537818 -17.986329,-6.19336 -5.243763,0.349973 -11.579999,6.201784 -14.550781,8.125 -0.135706,0.08785 -0.256394,0.162086 -0.365234,0.226563 -0.01785,0.01057 -0.03389,0.01948 -0.05078,0.0293 -1.410021,-0.34733 -8.931458,-8.552299 -14.917968,-8.384766 -1.971752,0.05518 -3.454057,0.297941 -4.783204,0.597656 2.394192,-4.21143 6.026003,-7.550454 9.048829,-9.80664 l 0.002,-0.002 c 1.285537,-0.948667 2.457678,-1.820949 3.746094,-3.378907 2.15311,-2.601362 -0.96703,-6.22521 -3.859376,-4.482421 -8.878773,5.345364 -16.898825,9.710493 -19.990234,19.998046 l 0.03125,-0.0957 c -0.322751,0.956035 -0.672542,1.652212 -1.052734,2.238281 0.08836,-0.319418 0.111202,-0.52001 0.210937,-0.857421 0.972183,-3.288957 2.276689,-6.75628 3.400391,-8.728516 3.488817,-6.123304 6.175884,-8.487817 14.564453,-12.328125 6.291559,-2.880293 7.473924,-3.143234 13.720703,-3.078125 z m 14.142578,28.1875 c 0.384734,-0.05642 0.701452,-0.03099 1.023438,0.0078 0.755442,0.09103 1.643322,0.291096 2.894531,0.49414 2.623208,0.425688 9.170495,3.111162 12.353515,5.171875 1.39217,0.901304 4.1174,1.64602 6.25195,1.984375 1.89328,0.30011 2.26549,0.616263 2.76563,1.550781 0.48185,0.900341 0.86626,1.047331 -1.61719,7.779297 -2.67812,7.259683 -4.9712,14.860954 -7.30859,23.095704 -0.24241,0.854 -0.49317,1.8006 -0.75,2.81055 -0.2313,0.90951 -0.46921,1.87456 -0.70703,2.87304 -0.78803,3.30849 -0.56178,1.11477 -3.95899,18.4668 H 49.902344 c -1.945411,-9.33839 -2.029953,-9.52023 -3.615235,-16.19336 -0.598741,-2.52036 -1.237896,-5.14191 -1.90039,-7.75586 -0.827945,-3.26675 -1.693055,-6.5283 -2.5625,-9.570311 -0.483218,-1.69068 -0.969069,-3.317874 -1.451172,-4.84375 -0.535315,-1.694292 -1.070139,-3.275657 -1.595703,-4.685547 -0.0019,-0.0046 -0.0039,-0.0091 -0.0059,-0.01367 C 34.27207,77.064066 34.85901,77.712867 36.398438,76.501953 c 1.024632,-0.805976 2.849094,-1.089021 4.550781,-1.65625 1.178039,-0.39268 4.45535,-1.159729 6.740234,-2.693359 8.288137,-5.563048 13.883618,-5.05209 20.435547,0.189453 2.499043,1.999234 4.419232,3.662629 6.875,3.671875 2.455768,0.0092 4.403392,-1.663083 6.892578,-3.685547 4.292929,-3.488005 6.050878,-4.393242 7.205078,-4.5625 z"
       id="path307"
       sodipodi:nodetypes="ccsssssssszzzcczcccccsssssczszzzzzzzzzzz"
       inkscape:path-effect="#path-effect429"
       inkscape:original-d="M 47.5,135 C 47.5,135 41,103.5 35.967611,90 31.387689,77.914117 31.279631,76.711802 34.542656,74.145106 36.04254,72.965298 38.5,72.5 40,72 41.37384,71.542053 44.102692,70.948247 46.017865,69.66277 55.411609,63.357632 62.352434,63.881947 70,70 c 5,4 5.030446,4.037763 10,0 8,-6.5 8.679005,-5.476053 13.496885,-4.694218 3.155683,0.512096 10.046885,3.377932 13.503115,5.615525 0.825,0.534112 3.1151,1.227127 5.08912,1.540034 2.46873,0.391326 3.87576,1.10452 4.94177,3.096371 1.06601,1.991851 1.19385,3.076961 -1.44673,10.234868 -2.64058,7.157907 -4.90635,14.66617 -7.2365,22.87539 C 106.01751,116.87719 102.5,135 102.5,135 Z M 60,62.5 C 55.012355,62.63958 53.372039,63.796478 50,65 51.661353,57.02576 57.923409,51.217308 62.400038,47.87802 64.54506,46.295109 65.61792,45 65.61792,45 56.688557,50.375821 49.659091,54.288267 46.953849,63.290738 45.545891,67.461315 43.33064,69.293629 39.295203,69.628537 38.366748,68.700081 41.562934,57.887662 44.062851,53.5 c 3.857231,-6.769915 7.098989,-9.533198 15.923114,-13.572905 6.504423,-2.977743 8.471186,-3.416826 15,-3.348777 13.437919,0.140061 27.404705,8.075748 32.001925,18.182946 1.18547,2.606305 2.57316,5.52013 3.08375,6.475167 C 111.09336,63.147478 111.35346,70 110.40429,70 100.46067,66.487726 95.053035,62.162757 90,62.5 84.946965,62.837243 77.095489,71 75,71 72,71 64.987645,62.36042 60,62.5 Z M 65,25 c 0,-5 5,-10 10,-10 5,0 10,5 10,10 0,5 -5,10 -10,10 -5,0 -10,-5 -10,-10 z m 8,-5 C 72.637036,19.342625 71.905191,19.24117 71.274265,19.825735 70.643339,20.4103 70.558511,21.285655 71,22 c 0.441489,0.714345 1.117402,0.782598 1.725735,0.174265 C 73.334068,21.565932 73.362964,20.657375 73,20 Z" /></g></svg>
